:FULLY-SPECIFIED
:FORCE-ALL-JOINTS-BE-3DOF
:DEGREES
1529
root -5.6688 15.3463 19.6311 565.242 -7.70817 547.335
lfemur -47.0641 10.5655 -26.0572
ltibia 84.9919 0 0
lfoot -11.2303 18.572 0
ltoes -27.065 0 0
rfemur -45.3579 -2.5651 16.7426
rtibia 71.9742 0 0
rfoot -18.8205 -8.4051 0
rtoes -23.2766 0 0
lowerback 19.5022 0.421273 2.07426
upperback -1.2102 1.62461 3.10257
thorax -12.214 0.774028 1.73847
lowerneck -3.73902 7.48957 3.12627
upperneck 3.88845 10.6296 -9.9055
head 2.53347 5.17371 -3.02316
lclavicle -1.49241e-14 7.71929e-15 0
lhumerus 63.6395 -61.8753 40.6449
lradius 109.838 0 0
lwrist 14.4158 0 0
lhand -24.0143 38.8089 0
lfingers 7.12502 0 0
lthumb 2.46914 -210.929 0
rclavicle -1.49241e-14 7.71929e-15 0
rhumerus -45.6148 50.4753 -84.5949
rradius 116.92 0 0
rwrist -45.8854 0 0
rhand 8.81589 -31.0352 0
rfingers 7.12502 0 0
rthumb 34.0247 -58.0668 0
1530
root -5.73234 15.3521 19.6552 565.961 -10.262 546.873
lfemur -46.5428 10.7307 -25.9923
ltibia 84.061 0 0
lfoot -11.403 18.3894 0
ltoes -27.4884 0 0
rfemur -45.5941 -2.96776 16.7666
rtibia 72.803 0 0
rfoot -18.6847 -8.63268 0
rtoes -22.8918 0 0
lowerback 19.4465 0.361023 1.76349
upperback -1.20207 1.46935 3.11111
thorax -12.1602 0.716775 1.96749
lowerneck -3.79421 7.23014 2.93096
upperneck 3.86846 10.2775 -9.69429
head 2.5085 4.99846 -2.94086
lclavicle -1.43563e-14 7.47596e-15 0
lhumerus 62.1857 -60.7225 41.7125
lradius 107.861 0 0
lwrist 13.8413 0 0
lhand -24.1538 38.5605 0
lfingers 7.12502 0 0
lthumb 2.33519 -201.458 0
rclavicle -1.43563e-14 7.47596e-15 0
rhumerus -46.4105 50.2145 -85.3602
rradius 117.824 0 0
rwrist -46.3487 0 0
rhand 9.1709 -30.7194 0
rfingers 7.12502 0 0
rthumb 34.3637 -57.6944 0
1531
root -5.79588 15.3579 19.6793 566.579 -12.8707 546.271
lfemur -45.9642 10.8914 -25.9112
ltibia 83.0583 0 0
lfoot -11.5833 18.2085 0
ltoes -27.9303 0 0
rfemur -45.8526 -3.39308 16.7868
rtibia 73.659 0 0
rfoot -18.5373 -8.86694 0
rtoes -22.4775 0 0
lowerback 19.3874 0.300256 1.43731
upperback -1.19372 1.30937 3.11719
thorax -12.104 0.658026 2.20392
lowerneck -3.85281 6.9538 2.72232
upperneck 3.84847 9.90248 -9.46738
head 2.48307 4.81185 -2.85251
lclavicle -1.37714e-14 7.20355e-15 0
lhumerus 60.6073 -59.5056 42.854
lradius 105.814 0 0
lwrist 13.2724 0 0
lhand -24.2957 38.3073 0
lfingers 7.12502 0 0
lthumb 2.19903 -191.724 0
rclavicle -1.37714e-14 7.20355e-15 0
rhumerus -47.1641 49.9125 -86.1097
rradius 118.728 0 0
rwrist -46.7881 0 0
rhand 9.51526 -30.391 0
rfingers 7.12502 0 0
rthumb 34.6924 -57.3097 0
1532
root -5.85942 15.3637 19.7034 567.107 -15.5268 545.538
lfemur -45.332 11.047 -25.8149
ltibia 81.9897 0 0
lfoot -11.7704 18.0299 0
ltoes -28.389 0 0
rfemur -46.1314 -3.83893 16.8032
rtibia 74.5382 0 0
rfoot -18.379 -9.10635 0
rtoes -22.0359 0 0
lowerback 19.3249 0.239243 1.09722
upperback -1.18516 1.14542 3.12087
thorax -12.0455 0.598054 2.44677
lowerneck -3.91435 6.66171 2.50129
upperneck 3.82851 9.50612 -9.22577
head 2.45727 4.61466 -2.75852
lclavicle -1.3172e-14 6.9039e-15 0
lhumerus 58.9123 -58.2304 44.0636
lradius 103.706 0 0
lwrist 12.7109 0 0
lhand -24.4384 38.0507 0
lfingers 7.12502 0 0
lthumb 2.06208 -181.759 0
rclavicle -1.3172e-14 6.9039e-15 0
rhumerus -47.8743 49.5712 -86.842
rradius 119.627 0 0
rwrist -47.2025 0 0
rhand 9.84816 -30.0519 0
rfingers 7.12502 0 0
rthumb 35.01 -56.9146 0
1533
root -5.92296 15.3696 19.7275 567.555 -18.2228 544.677
lfemur -44.65 11.197 -25.7042
ltibia 80.8609 0 0
lfoot -11.964 17.854 0
ltoes -28.8627 0 0
rfemur -46.4285 -4.30315 16.8158
rtibia 75.4366 0 0
rfoot -18.2103 -9.34941 0
rtoes -21.5692 0 0
lowerback 19.2593 0.178256 0.744676
upperback -1.17638 0.978232 3.1222
thorax -11.9849 0.537131 2.69506
lowerneck -3.97835 6.35504 2.26875
upperneck 3.80862 9.08997 -8.97044
head 2.43121 4.40767 -2.65928
lclavicle -1.25608e-14 6.57885e-15 0
lhumerus 57.1089 -56.9025 45.3357
lradius 101.545 0 0
lwrist 12.1587 0 0
lhand -24.5804 37.7918 0
lfingers 7.12502 0 0
lthumb 1.92578 -171.593 0
rclavicle -1.25608e-14 6.57885e-15 0
rhumerus -48.5398 49.1927 -87.5558
rradius 120.515 0 0
rwrist -47.5908 0 0
rhand 10.1688 -29.7038 0
rfingers 7.12502 0 0
rthumb 35.3158 -56.5112 0
1534
root -5.9865 15.3754 19.7516 567.933 -20.9513 543.696
lfemur -43.9219 11.3405 -25.5798
ltibia 79.6778 0 0
lfoot -12.1634 17.6813 0
ltoes -29.3497 0 0
rfemur -46.7419 -4.7836 16.8245
rtibia 76.3501 0 0
rfoot -18.0321 -9.59459 0
rtoes -21.0796 0 0
lowerback 19.1909 0.117565 0.381176
upperback -1.16738 0.80855 3.12122
thorax -11.9224 0.47553 2.94781
lowerneck -4.04434 6.03497 2.02563
upperneck 3.78885 8.6556 -8.70238
head 2.405 4.19166 -2.55517
lclavicle -1.19404e-14 6.23024e-15 0
lhumerus 55.2053 -55.5276 46.6644
lradius 99.3411 0 0
lwrist 11.6178 0 0
lhand -24.7202 37.5322 0
lfingers 7.12502 0 0
lthumb 1.79155 -161.255 0
rclavicle -1.19404e-14 6.23024e-15 0
rhumerus -49.1596 48.7788 -88.2497
rradius 121.389 0 0
rwrist -47.9521 0 0
rhand 10.4762 -29.3487 0
rfingers 7.12502 0 0
rthumb 35.6089 -56.1015 0
1535
root -6.05004 15.3812 19.7757 568.25 -23.7047 542.601
lfemur -43.1515 11.4771 -25.4429
ltibia 78.4463 0 0
lfoot -12.3681 17.5125 0
ltoes -29.8484 0 0
rfemur -47.0697 -5.27813 16.8293
rtibia 77.2748 0 0
rfoot -17.845 -9.84038 0
rtoes -20.5692 0 0
lowerback 19.1197 0.0574415 0.00819745
upperback -1.15817 0.637112 3.118
thorax -11.8582 0.413522 3.20403
lowerneck -4.11184 5.70266 1.77282
upperneck 3.76922 8.20458 -8.42257
head 2.37873 3.96741 -2.4466
lclavicle -1.13134e-14 5.85989e-15 0
lhumerus 53.2095 -54.1114 48.0441
lradius 97.1032 0 0
lwrist 11.0901 0 0
lhand -24.8564 37.273 0
lfingers 7.12502 0 0
lthumb 1.66082 -150.776 0
rclavicle -1.13134e-14 5.85989e-15 0
rhumerus -49.7323 48.3315 -88.9223
rradius 122.244 0 0
rwrist -48.2853 0 0
rhand 10.7698 -28.9885 0
rfingers 7.12502 0 0
rthumb 35.8885 -55.6877 0
1536
root -6.11357 15.387 19.7998 568.516 -26.4757 541.396
lfemur -42.3423 11.6062 -25.294
ltibia 77.1722 0 0
lfoot -12.5776 17.3478 0
ltoes -30.3569 0 0
rfemur -47.4099 -5.7846 16.8301
rtibia 78.2067 0 0
rfoot -17.6497 -10.0853 0
rtoes -20.0403 0 0
lowerback 19.0459 -0.0018444 -0.372777
upperback -1.14873 0.46466 3.11258
thorax -11.7924 0.35138 3.46273
lowerneck -4.18036 5.35929 1.51124
upperneck 3.74978 7.73848 -8.13201
head 2.35251 3.7357 -2.33397
lclavicle -1.06826e-14 5.46965e-15 0
lhumerus 51.1297 -52.6596 49.4689
lradius 94.8401 0 0
lwrist 10.5775 0 0
lhand -24.9875 37.0156 0
lfingers 7.12502 0 0
lthumb 1.53503 -140.187 0
rclavicle -1.06826e-14 5.46965e-15 0
rhumerus -50.2566 47.853 -89.5724
rradius 123.074 0 0
rwrist -48.5894 0 0
rhand 11.0485 -28.625 0
rfingers 7.12502 0 0
rthumb 36.154 -55.2717 0
